<svg width="24" height="24" viewBox="0 0 24 24" fill="none" xmlns="http://www.w3.org/2000/svg">
<path d="M5.75 13.3188V15.3795C5.75 16.0186 6.04921 16.6343 6.6247 16.9123C8.11139 17.6303 10.1884 18 12 18C13.8117 18 15.8886 17.6303 17.3753 16.9123C17.9508 16.6343 18.25 16.0186 18.25 15.3795V13.3188" stroke="#E0E0E0" stroke-width="1.5" stroke-linecap="round"/>
<path d="M8.75 5.75C8.75 4.09315 10.0931 2.75 11.75 2.75H12.25C13.9069 2.75 15.25 4.09315 15.25 5.75V12.7292C15.25 13.6279 14.6541 14.4368 13.77 14.5985C12.5516 14.8213 11.5202 14.8179 10.2552 14.5903C9.36039 14.4293 8.75 13.6161 8.75 12.707V5.75Z" stroke="#E0E0E0" stroke-width="1.5" stroke-linecap="round" stroke-linejoin="round"/>
<path d="M12 18.25L12 21.25" stroke="#E0E0E0" stroke-width="1.5" stroke-linecap="round" stroke-linejoin="round"/>
<path d="M20.4228 6.94949L20.0113 8.20368C19.9285 8.45603 19.5715 8.45603 19.4887 8.20368L19.0772 6.94949C18.9954 6.70017 18.7998 6.50463 18.5505 6.42282L17.2963 6.01129C17.044 5.92849 17.044 5.57151 17.2963 5.48871L18.5505 5.07718C18.7998 4.99537 18.9954 4.79983 19.0772 4.55051L19.4887 3.29632C19.5715 3.04397 19.9285 3.04397 20.0113 3.29632L20.4228 4.55051C20.5046 4.79983 20.7002 4.99537 20.9495 5.07718L22.2037 5.48871C22.456 5.57151 22.456 5.92849 22.2037 6.01129L20.9495 6.42282C20.7002 6.50463 20.5046 6.70017 20.4228 6.94949Z" fill="#E0E0E0"/>
<path d="M4.92282 6.94949L4.51129 8.20368C4.42849 8.45603 4.07151 8.45603 3.98871 8.20368L3.57718 6.94949C3.49537 6.70017 3.29983 6.50463 3.05051 6.42282L1.79632 6.01129C1.54397 5.92849 1.54397 5.57151 1.79632 5.48871L3.05051 5.07718C3.29983 4.99537 3.49537 4.79983 3.57718 4.55051L3.98871 3.29632C4.07151 3.04397 4.42849 3.04397 4.51129 3.29632L4.92282 4.55051C5.00463 4.79983 5.20017 4.99537 5.44949 5.07718L6.70368 5.48871C6.95603 5.57151 6.95603 5.92849 6.70368 6.01129L5.44949 6.42282C5.20017 6.50463 5.00463 6.70017 4.92282 6.94949Z" fill="#E0E0E0"/>
</svg>
