<svg width="24" height="24" viewBox="0 0 24 24" fill="none" xmlns="http://www.w3.org/2000/svg">
<path d="M11 20.25H8.55C6.86984 20.25 6.02976 20.25 5.38803 19.923C4.82354 19.6354 4.3646 19.1765 4.07698 18.612C3.75 17.9702 3.75 17.1302 3.75 15.45V8.55C3.75 6.86984 3.75 6.02976 4.07698 5.38803C4.3646 4.82354 4.82354 4.3646 5.38803 4.07698C6.02976 3.75 6.86984 3.75 8.55 3.75H15.45C17.1302 3.75 17.9702 3.75 18.612 4.07698C19.1765 4.3646 19.6354 4.82354 19.923 5.38803C20.25 6.02976 20.25 6.86984 20.25 8.55V11" stroke="#E0E0E0" stroke-width="1.5" stroke-linecap="round"/>
<path d="M13.75 8.75H7.75" stroke="#E0E0E0" stroke-width="1.5" stroke-linecap="round" stroke-linejoin="round"/>
<path d="M10.75 11.75H7.75" stroke="#E0E0E0" stroke-width="1.5" stroke-linecap="round" stroke-linejoin="round"/>
<path d="M17.5657 18.9708L17.2649 20.0061C16.9612 21.0516 16.8094 21.5744 16.5755 21.7068C16.3736 21.8212 16.1264 21.8212 15.9245 21.7068C15.6906 21.5744 15.5388 21.0516 15.2351 20.0061L15.2351 20.0061L14.9343 18.9708C14.8188 18.5732 14.7611 18.3744 14.653 18.211C14.5574 18.0664 14.4336 17.9426 14.289 17.847C14.1256 17.7389 13.9268 17.6812 13.5292 17.5657L12.4939 17.2649C11.4484 16.9612 10.9256 16.8094 10.7932 16.5755C10.6788 16.3736 10.6788 16.1264 10.7932 15.9245C10.9256 15.6906 11.4484 15.5388 12.4939 15.2351L13.5292 14.9343L13.5292 14.9343C13.9268 14.8188 14.1256 14.7611 14.289 14.653C14.4336 14.5574 14.5574 14.4336 14.653 14.289C14.7611 14.1256 14.8188 13.9268 14.9343 13.5292L14.9343 13.5292L15.2351 12.4939C15.5388 11.4484 15.6906 10.9256 15.9245 10.7932C16.1264 10.6788 16.3736 10.6788 16.5755 10.7932C16.8094 10.9256 16.9612 11.4484 17.2649 12.4939L17.5657 13.5292C17.6812 13.9268 17.7389 14.1256 17.847 14.289C17.9426 14.4336 18.0664 14.5574 18.211 14.653C18.3744 14.7611 18.5732 14.8188 18.9708 14.9343L18.9708 14.9343L20.0061 15.2351C21.0516 15.5388 21.5744 15.6906 21.7068 15.9245C21.8212 16.1264 21.8212 16.3736 21.7068 16.5755C21.5744 16.8094 21.0516 16.9612 20.0061 17.2649L18.9708 17.5657C18.5732 17.6812 18.3744 17.7389 18.211 17.847C18.0664 17.9426 17.9426 18.0664 17.847 18.211C17.7389 18.3744 17.6812 18.5732 17.5657 18.9708Z" stroke="#E0E0E0" stroke-width="1.5"/>
</svg>
