<svg width="24" height="24" viewBox="0 0 24 24" fill="none" xmlns="http://www.w3.org/2000/svg">
<path d="M13.532 6.08143L17.9186 10.468M3.93041 21.2393L6.31863 20.8982C7.20447 20.7716 8.02537 20.3612 8.65812 19.7284L19.0567 9.3298C19.0688 9.31771 19.0749 9.31166 19.08 9.30653C20.2705 8.10479 20.2705 6.16827 19.08 4.96653C19.0749 4.9614 19.0688 4.95535 19.0567 4.94326C19.0446 4.93118 19.0386 4.92513 19.0335 4.92004C17.8317 3.72953 15.8952 3.72953 14.6935 4.92004C14.6883 4.92513 14.6823 4.93118 14.6702 4.94326L4.27158 15.3419C3.63884 15.9746 3.22839 16.7955 3.10184 17.6814L2.76067 20.0696C2.66319 20.7519 3.24806 21.3368 3.93041 21.2393Z" stroke="#E0E0E0" stroke-width="1.5" stroke-linecap="round" stroke-linejoin="round"/>
<path d="M18.9228 19.4495L18.5113 20.7037C18.4285 20.956 18.0715 20.956 17.9887 20.7037L17.5772 19.4495C17.4954 19.2002 17.2998 19.0046 17.0505 18.9228L15.7963 18.5113C15.544 18.4285 15.544 18.0715 15.7963 17.9887L17.0505 17.5772C17.2998 17.4954 17.4954 17.2998 17.5772 17.0505L17.9887 15.7963C18.0715 15.544 18.4285 15.544 18.5113 15.7963L18.9228 17.0505C19.0046 17.2998 19.2002 17.4954 19.4495 17.5772L20.7037 17.9887C20.956 18.0715 20.956 18.4285 20.7037 18.5113L19.4495 18.9228C19.2002 19.0046 19.0046 19.2002 18.9228 19.4495Z" fill="#E0E0E0"/>
<path d="M5.92282 7.44949L5.51129 8.70368C5.42849 8.95603 5.07151 8.95603 4.98871 8.70368L4.57718 7.44949C4.49537 7.20017 4.29983 7.00463 4.05051 6.92282L2.79632 6.51129C2.54397 6.42849 2.54397 6.07151 2.79632 5.98871L4.05051 5.57718C4.29983 5.49537 4.49537 5.29983 4.57718 5.05051L4.98871 3.79632C5.07151 3.54397 5.42849 3.54397 5.51129 3.79632L5.92282 5.05051C6.00463 5.29983 6.20017 5.49537 6.44949 5.57718L7.70368 5.98871C7.95603 6.07151 7.95603 6.42849 7.70368 6.51129L6.44949 6.92282C6.20017 7.00463 6.00463 7.20017 5.92282 7.44949Z" fill="#E0E0E0"/>
</svg>
